<svg version="1.1" xmlns="http://www.w3.org/2000/svg" xmlns:xlink="http://www.w3.org/1999/xlink" width="1197.19617" height="817.75696"><defs><symbol viewBox="-12.5,-12.5,25,25" id="symbol-1"><g fill="none" fill-rule="nonzero" stroke="none" stroke-width="3.75" stroke-linecap="butt" stroke-linejoin="miter" stroke-miterlimit="10" stroke-dasharray="" stroke-dashoffset="0" font-family="none" font-weight="none" font-size="none" text-anchor="none" style="mix-blend-mode: normal"><path d="M12.5,-7.5l-20,20" stroke="#afe8b4"/><path d="M7.5,-12.5l-20,20" stroke="#000000"/></g></symbol><symbol viewBox="-9,-20,18,40" id="symbol-2"><g fill="none" fill-rule="nonzero" stroke="none" stroke-width="3.75" stroke-linecap="butt" stroke-linejoin="miter" stroke-miterlimit="10" stroke-dasharray="" stroke-dashoffset="0" font-family="none" font-weight="none" font-size="none" text-anchor="none" style="mix-blend-mode: normal"><path d="M1,-20l8,8l-8,8l8,8l-8,8l8,8" stroke="#ffe8bb"/><path d="M-9,-20l8,8l-8,8l8,8l-8,8l8,8" stroke="#000000"/></g></symbol><symbol viewBox="-21.32051,-19,42.64102,38" id="symbol-3"><g fill="none" fill-rule="nonzero" stroke="none" stroke-width="none" stroke-linecap="butt" stroke-linejoin="miter" stroke-miterlimit="10" stroke-dasharray="" stroke-dashoffset="0" font-family="none" font-weight="none" font-size="none" text-anchor="none" style="mix-blend-mode: normal"><path d="M-21.32051,11l17.32051,-30l17.32051,30z" fill="#f4d65b" stroke="none" stroke-width="1"/><path d="M-13.32051,19l17.32051,-30l17.32051,30z" fill="none" stroke="#000000" stroke-width="3.75"/></g></symbol><symbol viewBox="-18.5,-18.5,37,37" id="symbol-4"><g fill="none" fill-rule="nonzero" stroke="none" stroke-width="none" stroke-linecap="butt" stroke-linejoin="miter" stroke-miterlimit="10" stroke-dasharray="" stroke-dashoffset="0" font-family="none" font-weight="none" font-size="none" text-anchor="none" style="mix-blend-mode: normal"><path d="M-11.5,-3.5c0,-8.28427 6.71573,-15 15,-15c8.28427,0 15,6.71573 15,15c0,8.28427 -6.71573,15 -15,15c-8.28427,0 -15,-6.71573 -15,-15z" fill="#4f4faf" stroke="none" stroke-width="1"/><path d="M-18.5,3.5c0,-8.28427 6.71573,-15 15,-15c8.28427,0 15,6.71573 15,15c0,8.28427 -6.71573,15 -15,15c-8.28427,0 -15,-6.71573 -15,-15z" fill="none" stroke="#000000" stroke-width="3.75"/></g></symbol><symbol viewBox="-17.64214,-17.64214,35.28427,35.28427" id="symbol-5"><g fill="none" fill-rule="nonzero" stroke="none" stroke-width="none" stroke-linecap="butt" stroke-linejoin="miter" stroke-miterlimit="10" stroke-dasharray="" stroke-dashoffset="0" font-family="none" font-weight="none" font-size="none" text-anchor="none" style="mix-blend-mode: normal"><path d="M-10.64214,10.64214l0,-28.28427l28.28427,0l0,28.28427z" fill="#f44e45" stroke="none" stroke-width="1"/><path d="M-17.64214,17.64214v-28.28427l28.28427,0l0,28.28427z" fill="none" stroke="#000000" stroke-width="3.75"/></g></symbol></defs><g fill="none" fill-rule="nonzero" stroke="none" stroke-width="1" stroke-linecap="butt" stroke-linejoin="miter" stroke-miterlimit="10" stroke-dasharray="" stroke-dashoffset="0" font-family="none" font-weight="none" font-size="none" text-anchor="none" style="mix-blend-mode: normal"><use x="77.5" y="27.5" xlink:href="#symbol-1" width="25" height="25" overflow="visible"/><use x="226" y="53" xlink:href="#symbol-2" width="18" height="40" overflow="visible"/><use x="379.67949" y="16" xlink:href="#symbol-3" width="42.64102" height="38" overflow="visible"/><use x="573.5" y="50.5" xlink:href="#symbol-1" width="25" height="25" overflow="visible"/><use x="692.5" y="49.5" xlink:href="#symbol-4" width="37" height="37" overflow="visible"/><use x="886" y="76" xlink:href="#symbol-2" width="18" height="40" overflow="visible"/><use x="1087" y="75" xlink:href="#symbol-2" width="18" height="40" overflow="visible"/><use x="1215.5" y="62.5" xlink:href="#symbol-4" width="37" height="37" overflow="visible"/><use x="1405.35786" y="17.35786" xlink:href="#symbol-5" width="35.28427" height="35.28427" overflow="visible"/><use x="48.5" y="226.5" xlink:href="#symbol-4" width="37" height="37" overflow="visible"/><use x="246" y="255" xlink:href="#symbol-2" width="18" height="40" overflow="visible"/><use x="351.5" y="203.5" xlink:href="#symbol-4" width="37" height="37" overflow="visible"/><use x="597.5" y="208.5" xlink:href="#symbol-1" width="25" height="25" overflow="visible"/><use x="766.5" y="192.5" xlink:href="#symbol-4" width="37" height="37" overflow="visible"/><use x="890.35786" y="222.35786" xlink:href="#symbol-5" width="35.28427" height="35.28427" overflow="visible"/><use x="1073.67949" y="217" xlink:href="#symbol-3" width="42.64102" height="38" overflow="visible"/><use x="1254.35786" y="182.35786" xlink:href="#symbol-5" width="35.28427" height="35.28427" overflow="visible"/><use x="1397.5" y="194.5" xlink:href="#symbol-4" width="37" height="37" overflow="visible"/><use x="14.35786" y="431.35786" xlink:href="#symbol-5" width="35.28427" height="35.28427" overflow="visible"/><use x="196.5" y="382.5" xlink:href="#symbol-4" width="37" height="37" overflow="visible"/><use x="389.5" y="403.5" xlink:href="#symbol-1" width="25" height="25" overflow="visible"/><use x="597.5" y="389.5" xlink:href="#symbol-1" width="25" height="25" overflow="visible"/><use x="715" y="396" xlink:href="#symbol-2" width="18" height="40" overflow="visible"/><use x="899.35786" y="387.35786" xlink:href="#symbol-5" width="35.28427" height="35.28427" overflow="visible"/><use x="1050.35786" y="426.35786" xlink:href="#symbol-5" width="35.28427" height="35.28427" overflow="visible"/><use x="1220" y="417" xlink:href="#symbol-2" width="18" height="40" overflow="visible"/><use x="1377.5" y="418.5" xlink:href="#symbol-4" width="37" height="37" overflow="visible"/><use x="55.35786" y="523.35786" xlink:href="#symbol-5" width="35.28427" height="35.28427" overflow="visible"/><use x="264" y="552" xlink:href="#symbol-2" width="18" height="40" overflow="visible"/><use x="401.5" y="540.5" xlink:href="#symbol-4" width="37" height="37" overflow="visible"/><use x="541.67949" y="578" xlink:href="#symbol-3" width="42.64102" height="38" overflow="visible"/><use x="711.35786" y="526.35786" xlink:href="#symbol-5" width="35.28427" height="35.28427" overflow="visible"/><use x="917.5" y="558.5" xlink:href="#symbol-1" width="25" height="25" overflow="visible"/><use x="1081.67949" y="550" xlink:href="#symbol-3" width="42.64102" height="38" overflow="visible"/><use x="1270" y="571" xlink:href="#symbol-2" width="18" height="40" overflow="visible"/><use x="1391.67949" y="595" xlink:href="#symbol-3" width="42.64102" height="38" overflow="visible"/><use x="64" y="698" xlink:href="#symbol-2" width="18" height="40" overflow="visible"/><use x="210.5" y="754.5" xlink:href="#symbol-1" width="25" height="25" overflow="visible"/><use x="427.35786" y="729.35786" xlink:href="#symbol-5" width="35.28427" height="35.28427" overflow="visible"/><use x="554.5" y="720.5" xlink:href="#symbol-1" width="25" height="25" overflow="visible"/><use x="736.5" y="696.5" xlink:href="#symbol-4" width="37" height="37" overflow="visible"/><use x="932.35786" y="709.35786" xlink:href="#symbol-5" width="35.28427" height="35.28427" overflow="visible"/><use x="1106.67949" y="752" xlink:href="#symbol-3" width="42.64102" height="38" overflow="visible"/><use x="1278.5" y="761.5" xlink:href="#symbol-4" width="37" height="37" overflow="visible"/><use x="1393.5" y="692.5" xlink:href="#symbol-4" width="37" height="37" overflow="visible"/><use x="71.5" y="912.5" xlink:href="#symbol-1" width="25" height="25" overflow="visible"/><use x="241.35786" y="892.35786" xlink:href="#symbol-5" width="35.28427" height="35.28427" overflow="visible"/><use x="413.5" y="931.5" xlink:href="#symbol-1" width="25" height="25" overflow="visible"/><use x="589.5" y="885.5" xlink:href="#symbol-4" width="37" height="37" overflow="visible"/><use x="736.5" y="894.5" xlink:href="#symbol-1" width="25" height="25" overflow="visible"/><use x="932" y="866" xlink:href="#symbol-2" width="18" height="40" overflow="visible"/><use x="1082.5" y="887.5" xlink:href="#symbol-1" width="25" height="25" overflow="visible"/><use x="1237.5" y="938.5" xlink:href="#symbol-1" width="25" height="25" overflow="visible"/><use x="1425" y="873" xlink:href="#symbol-2" width="18" height="40" overflow="visible"/></g></svg>